<svg width="25" height="25" viewBox="0 0 25 25" fill="none" xmlns="http://www.w3.org/2000/svg">
<path d="M16.927 10.9375L14.3228 13.5417L15.4166 14.6354L16.0937 13.9583C15.9895 14.8785 15.5989 15.6469 14.9218 16.2635C14.2447 16.8795 13.4374 17.1875 12.4999 17.1875C12.2569 17.1875 12.0312 17.166 11.8228 17.1229C11.6145 17.0792 11.4062 17.0139 11.1978 16.9271L10.052 18.0729C10.4166 18.2812 10.803 18.4462 11.2114 18.5677C11.619 18.6892 12.0485 18.75 12.4999 18.75C13.8888 18.75 15.0735 18.2812 16.0541 17.3437C17.0353 16.4062 17.5694 15.2604 17.6562 13.9062L18.4374 14.6354L19.5312 13.5417L16.927 10.9375ZM8.07284 16.1458L10.677 13.5417L9.58325 12.4479L8.90617 13.125C9.01034 12.2049 9.40096 11.4365 10.078 10.8198C10.7551 10.2038 11.5624 9.89583 12.4999 9.89583C12.743 9.89583 12.9687 9.91736 13.177 9.96042C13.3853 10.0042 13.5937 10.0694 13.802 10.1562L14.9478 9.01042C14.5833 8.80208 14.1971 8.63715 13.7895 8.51562C13.3812 8.3941 12.9513 8.33333 12.4999 8.33333C11.111 8.33333 9.92631 8.80208 8.94575 9.73958C7.9645 10.6771 7.43047 11.8229 7.34367 13.1771L6.56242 12.4479L5.46867 13.5417L8.07284 16.1458ZM4.16659 21.875C3.59367 21.875 3.10339 21.6712 2.69575 21.2635C2.28742 20.8552 2.08325 20.3646 2.08325 19.7917V7.29167C2.08325 6.71875 2.28742 6.22847 2.69575 5.82083C3.10339 5.4125 3.59367 5.20833 4.16659 5.20833H7.44784L9.37492 3.125H15.6249L17.552 5.20833H20.8333C21.4062 5.20833 21.8968 5.4125 22.3051 5.82083C22.7128 6.22847 22.9166 6.71875 22.9166 7.29167V19.7917C22.9166 20.3646 22.7128 20.8552 22.3051 21.2635C21.8968 21.6712 21.4062 21.875 20.8333 21.875H4.16659Z" fill="#000"/>
</svg>
