<svg width="29" height="31" viewBox="0 0 29 31" fill="none" xmlns="http://www.w3.org/2000/svg">
<path d="M22.2083 0.875H3.70833C2.89058 0.875 2.10632 1.21741 1.52809 1.8269C0.94985 2.4364 0.625 3.26305 0.625 4.125V26.875C0.625 27.737 0.94985 28.5636 1.52809 29.1731C2.10632 29.7826 2.89058 30.125 3.70833 30.125H25.2917C26.9875 30.125 28.375 28.6625 28.375 26.875V7.375L22.2083 0.875ZM14.5 26.875C11.9408 26.875 9.875 24.6975 9.875 22C9.875 19.3025 11.9408 17.125 14.5 17.125C17.0592 17.125 19.125 19.3025 19.125 22C19.125 24.6975 17.0592 26.875 14.5 26.875ZM19.125 10.625H3.70833V4.125H19.125V10.625Z" fill="#000"/>
</svg>
